<svg width="22" height="16" viewBox="0 0 22 16" fill="none" xmlns="http://www.w3.org/2000/svg">
<path fill-rule="evenodd" clip-rule="evenodd" d="M3.41669 0.416656C1.62176 0.416656 0.166687 1.87173 0.166687 3.66666V12.3333C0.166687 14.1282 1.62176 15.5833 3.41669 15.5833H18.5834C20.3783 15.5833 21.8334 14.1282 21.8334 12.3333V3.66666C21.8334 1.87173 20.3783 0.416656 18.5834 0.416656H3.41669ZM3.41669 4.74999C2.81838 4.74999 2.33335 5.23501 2.33335 5.83332C2.33335 6.43163 2.81838 6.91666 3.41669 6.91666H18.5834C19.1817 6.91666 19.6667 6.43163 19.6667 5.83332C19.6667 5.23501 19.1817 4.74999 18.5834 4.74999H3.41669ZM3.41669 9.08332C2.81838 9.08332 2.33335 9.56835 2.33335 10.1667C2.33335 10.765 2.81838 11.25 3.41669 11.25H8.83335C9.43166 11.25 9.91669 10.765 9.91669 10.1667C9.91669 9.56835 9.43166 9.08332 8.83335 9.08332H3.41669Z" fill="#989BA1"/>
</svg>
