<svg width="22" height="16" viewBox="0 0 22 16" fill="none" xmlns="http://www.w3.org/2000/svg">
<path fill-rule="evenodd" clip-rule="evenodd" d="M3.41669 0.416656C1.62176 0.416656 0.166687 1.87173 0.166687 3.66666V12.3333C0.166687 14.1282 1.62176 15.5833 3.41669 15.5833H18.5834C20.3783 15.5833 21.8334 14.1282 21.8334 12.3333V3.66666C21.8334 1.87173 20.3783 0.416656 18.5834 0.416656H3.41669ZM3.95409 2.72605C3.43461 2.4292 2.77285 2.60968 2.47601 3.12916C2.17917 3.64864 2.35965 4.3104 2.87912 4.60724L10.4625 8.94057C10.7955 9.13089 11.2044 9.13089 11.5374 8.94057L19.1208 4.60724C19.6402 4.3104 19.8207 3.64864 19.5239 3.12916C19.227 2.60968 18.5653 2.4292 18.0458 2.72605L10.9999 6.75225L3.95409 2.72605Z" fill="#989BA1"/>
</svg>
