<svg width="38" height="44" viewBox="0 0 38 44" fill="none" xmlns="http://www.w3.org/2000/svg">
<path d="M37.2011 30.3787C37.037 30.1822 36.8758 29.9858 36.7176 29.7963C34.5424 27.1828 33.2264 25.6054 33.2264 18.207C33.2264 14.3766 32.3039 11.2338 30.4856 8.87661C29.1448 7.13527 27.3324 5.81429 24.9436 4.83804C24.9129 4.82105 24.8854 4.79877 24.8625 4.77223C24.0033 1.9142 21.6521 0 19.0002 0C16.3484 0 13.9982 1.9142 13.1389 4.76929C13.116 4.79485 13.0889 4.81642 13.0589 4.83313C7.48428 7.11268 4.77511 11.4862 4.77511 18.204C4.77511 25.6054 3.46106 27.1828 1.28384 29.7933C1.12564 29.9829 0.964469 30.1754 0.800337 30.3757C0.376362 30.8836 0.107739 31.5015 0.0262583 32.1563C-0.0552222 32.8111 0.0538505 33.4754 0.340568 34.0705C0.950627 35.3473 2.25083 36.1399 3.73494 36.1399H34.2764C35.7536 36.1399 37.0449 35.3483 37.657 34.0774C37.9449 33.4821 38.055 32.8173 37.9742 32.1617C37.8934 31.5062 37.6251 30.8874 37.2011 30.3787ZM19.0002 44C20.429 43.9989 21.8309 43.6136 23.057 42.8851C24.2832 42.1566 25.2881 41.1121 25.965 39.8622C25.9969 39.8023 26.0126 39.7353 26.0107 39.6675C26.0088 39.5998 25.9893 39.5337 25.9541 39.4757C25.9188 39.4177 25.8691 39.3697 25.8097 39.3364C25.7503 39.3031 25.6832 39.2856 25.615 39.2857H12.3875C12.3192 39.2855 12.252 39.3028 12.1924 39.336C12.1329 39.3693 12.083 39.4172 12.0477 39.4753C12.0123 39.5333 11.9927 39.5995 11.9908 39.6673C11.9888 39.7351 12.0046 39.8023 12.0365 39.8622C12.7133 41.1119 13.718 42.1564 14.944 42.8849C16.17 43.6133 17.5716 43.9987 19.0002 44Z" fill="#989BA1"/>
</svg>
