<svg width="22" height="21" viewBox="0 0 22 21" fill="none" xmlns="http://www.w3.org/2000/svg">
<path fill-rule="evenodd" clip-rule="evenodd" d="M10.335 0.478202C10.7262 0.173933 11.274 0.173933 11.6652 0.478202L21.4152 8.06154C21.8875 8.42886 21.9725 9.10949 21.6052 9.58177C21.2379 10.054 20.5572 10.1391 20.085 9.7718L19.6667 9.44647V18.6667C19.6667 19.8633 18.6966 20.8333 17.5 20.8333H4.50002C3.3034 20.8333 2.33335 19.8633 2.33335 18.6667V9.44655L1.91517 9.7718C1.4429 10.1391 0.762264 10.054 0.394939 9.58177C0.0276127 9.10949 0.112692 8.42886 0.584968 8.06154L10.335 0.478202ZM9.91669 13.25C9.31838 13.25 8.83335 13.735 8.83335 14.3333V18.6667H13.1667V14.3333C13.1667 13.735 12.6817 13.25 12.0834 13.25H9.91669Z" fill="#989BA1"/>
</svg>
