<svg width="18" height="16" viewBox="0 0 18 16" fill="none" xmlns="http://www.w3.org/2000/svg">
<path fill-rule="evenodd" clip-rule="evenodd" d="M5.62496 2.16667C3.79723 2.16667 2.33329 3.62732 2.33329 5.40741C2.33329 6.27444 2.67815 7.06202 3.24452 7.64567L8.99985 13.4799L14.6508 7.74932C14.6566 7.74353 14.6624 7.73783 14.6682 7.7322C15.2863 7.14111 15.6666 6.31779 15.6666 5.40741C15.6666 3.62733 14.2027 2.16667 12.375 2.16667C11.9782 2.16667 11.5137 2.3889 10.9968 2.84671C10.493 3.29293 10.0419 3.87186 9.67848 4.38151C9.5221 4.60084 9.26934 4.73105 8.99996 4.73105C8.73058 4.73105 8.47782 4.60084 8.32144 4.38151C7.95806 3.87186 7.50693 3.29293 7.00315 2.84671C6.48627 2.3889 6.02172 2.16667 5.62496 2.16667ZM0.666626 5.40741C0.666626 2.68739 2.89634 0.5 5.62496 0.5C6.62332 0.5 7.47301 1.03645 8.10822 1.59908C8.43531 1.8888 8.73454 2.21136 8.99996 2.5289C9.26538 2.21136 9.56461 1.8888 9.8917 1.59908C10.5269 1.03646 11.3766 0.5 12.375 0.5C15.1036 0.5 17.3333 2.68739 17.3333 5.40741C17.3333 6.78991 16.7547 8.03829 15.8294 8.92786L9.59332 15.2518C9.43674 15.4106 9.22304 15.5 9.00004 15.5C8.77703 15.5 8.56332 15.4107 8.4067 15.2519L2.05144 8.80946C1.19572 7.92916 0.666626 6.72935 0.666626 5.40741Z" fill="#3A3379"/>
</svg>
